<svg width="23" height="26" viewBox="0 0 23 26" fill="none" xmlns="http://www.w3.org/2000/svg">
<path fill-rule="evenodd" clip-rule="evenodd" d="M11.6128 1.01114C11.3182 0.95055 11.0143 0.95055 10.7197 1.01114C10.3792 1.08118 10.0748 1.25167 9.83283 1.3872L9.76687 1.42405L1.56556 5.98037C1.54288 5.99296 1.51952 6.00583 1.49558 6.01902C1.23942 6.16011 0.917336 6.33752 0.669994 6.60592C0.456149 6.83797 0.294317 7.11301 0.195319 7.41264C0.0808146 7.75921 0.0821543 8.12692 0.0832197 8.41936C0.0833192 8.44669 0.0834164 8.47337 0.0834164 8.49931V17.4954C0.0834164 17.5214 0.0833192 17.548 0.0832197 17.5754C0.0821543 17.8678 0.0808146 18.2355 0.19532 18.5821C0.294317 18.8817 0.45615 19.1568 0.669995 19.3888C0.917337 19.6572 1.23942 19.8346 1.49558 19.9757C1.51952 19.9889 1.54289 20.0018 1.56556 20.0144L9.76687 24.5707L9.83284 24.6075C10.0748 24.7431 10.3792 24.9136 10.7197 24.9836C11.0143 25.0442 11.3182 25.0442 11.6128 24.9836C11.9534 24.9136 12.2577 24.7431 12.4997 24.6075L12.5657 24.5707L20.767 20.0144C20.777 20.0088 20.7872 20.0032 20.7975 19.9975C20.8104 19.9903 20.8236 19.9831 20.837 19.9757C21.0931 19.8346 21.4152 19.6572 21.6625 19.3888C21.8764 19.1568 22.0382 18.8817 22.1372 18.5821C22.2517 18.2355 22.2504 17.8678 22.2493 17.5754C22.2492 17.548 22.2491 17.5214 22.2491 17.4954V8.4993C22.2491 8.47337 22.2492 8.4467 22.2493 8.41937C22.2504 8.12692 22.2517 7.75921 22.1372 7.41264C22.0382 7.11301 21.8764 6.83797 21.6625 6.60592C21.4152 6.33751 21.0931 6.16011 20.837 6.01901L20.8361 6.01852C20.8124 6.00551 20.7894 5.9928 20.767 5.98037L12.5657 1.42405L12.4997 1.3872C12.2577 1.25166 11.9534 1.08118 11.6128 1.01114ZM10.8433 3.3617C11.0113 3.26839 11.097 3.22124 11.161 3.1904L11.1663 3.18786L11.1716 3.1904C11.2355 3.22124 11.3213 3.26839 11.4892 3.3617L18.8587 7.45588L11.1662 11.7295L3.47381 7.4559L10.8433 3.3617ZM2.29999 9.33945L10.058 13.6495L10.058 22.1967L2.64202 18.0767C2.46475 17.9782 2.37424 17.9274 2.31074 17.887L2.30538 17.8835L2.30498 17.8772C2.30045 17.802 2.29999 17.6982 2.29999 17.4954V9.33945Z" fill="#D6F6D9"/>
<path fill-rule="evenodd" clip-rule="evenodd" d="M11.6128 1.01114C11.3182 0.95055 11.0143 0.95055 10.7197 1.01114C10.3792 1.08118 10.0748 1.25167 9.83283 1.3872L9.76687 1.42405L1.56556 5.98037C1.54288 5.99296 1.51952 6.00583 1.49558 6.01902C1.23942 6.16011 0.917336 6.33752 0.669994 6.60592C0.456149 6.83797 0.294317 7.11301 0.195319 7.41264C0.0808146 7.75921 0.0821543 8.12692 0.0832197 8.41936C0.0833192 8.44669 0.0834164 8.47337 0.0834164 8.49931V17.4954C0.0834164 17.5214 0.0833192 17.548 0.0832197 17.5754C0.0821543 17.8678 0.0808146 18.2355 0.19532 18.5821C0.294317 18.8817 0.45615 19.1568 0.669995 19.3888C0.917337 19.6572 1.23942 19.8346 1.49558 19.9757C1.51952 19.9889 1.54289 20.0018 1.56556 20.0144L9.76687 24.5707L9.83284 24.6075C10.0748 24.7431 10.3792 24.9136 10.7197 24.9836C11.0143 25.0442 11.3182 25.0442 11.6128 24.9836C11.9534 24.9136 12.2577 24.7431 12.4997 24.6075L12.5657 24.5707L20.767 20.0144C20.777 20.0088 20.7872 20.0032 20.7975 19.9975C20.8104 19.9903 20.8236 19.9831 20.837 19.9757C21.0931 19.8346 21.4152 19.6572 21.6625 19.3888C21.8764 19.1568 22.0382 18.8817 22.1372 18.5821C22.2517 18.2355 22.2504 17.8678 22.2493 17.5754C22.2492 17.548 22.2491 17.5214 22.2491 17.4954V8.4993C22.2491 8.47337 22.2492 8.4467 22.2493 8.41937C22.2504 8.12692 22.2517 7.75921 22.1372 7.41264C22.0382 7.11301 21.8764 6.83797 21.6625 6.60592C21.4152 6.33751 21.0931 6.16011 20.837 6.01901L20.8361 6.01852C20.8124 6.00551 20.7894 5.9928 20.767 5.98037L12.5657 1.42405L12.4997 1.3872C12.2577 1.25166 11.9534 1.08118 11.6128 1.01114ZM10.8433 3.3617C11.0113 3.26839 11.097 3.22124 11.161 3.1904L11.1663 3.18786L11.1716 3.1904C11.2355 3.22124 11.3213 3.26839 11.4892 3.3617L18.8587 7.45588L11.1662 11.7295L3.47381 7.4559L10.8433 3.3617ZM2.29999 9.33945L10.058 13.6495L10.058 22.1967L2.64202 18.0767C2.46475 17.9782 2.37424 17.9274 2.31074 17.887L2.30538 17.8835L2.30498 17.8772C2.30045 17.802 2.29999 17.6982 2.29999 17.4954V9.33945Z" fill="url(#paint0_radial_8671_26189)"/>
<defs>
<radialGradient id="paint0_radial_8671_26189" cx="0" cy="0" r="1" gradientTransform="matrix(30.517 11.1818 -0.645674 33.1283 -1.14544 1.97426)" gradientUnits="userSpaceOnUse">
<stop stop-color="white" stop-opacity="0"/>
<stop offset="1" stop-color="white" stop-opacity="0.4"/>
</radialGradient>
</defs>
</svg>
