<svg width="26" height="26" viewBox="0 0 26 26" fill="none" xmlns="http://www.w3.org/2000/svg">
<path fill-rule="evenodd" clip-rule="evenodd" d="M12.8333 25.8335C19.9209 25.8335 25.6665 20.0879 25.6665 13.0002C25.6665 5.91256 19.9209 0.16687 12.8333 0.16687C5.74563 0.16687 0 5.91256 0 13.0002C0 20.0879 5.74563 25.8335 12.8333 25.8335ZM16.8368 6.14518C17.0317 5.45296 16.3599 5.04362 15.7464 5.48071L7.1822 11.5819C6.51686 12.0559 6.62152 13.0002 7.33941 13.0002H9.59459V12.9827H13.9899L10.4085 14.2464L8.82973 19.8553C8.63486 20.5475 9.30655 20.9568 9.92011 20.5197L18.4843 14.4186C19.1497 13.9446 19.0449 13.0002 18.3271 13.0002H14.9072L16.8368 6.14518Z" fill="#D6F6D9"/>
<path fill-rule="evenodd" clip-rule="evenodd" d="M12.8333 25.8335C19.9209 25.8335 25.6665 20.0879 25.6665 13.0002C25.6665 5.91256 19.9209 0.16687 12.8333 0.16687C5.74563 0.16687 0 5.91256 0 13.0002C0 20.0879 5.74563 25.8335 12.8333 25.8335ZM16.8368 6.14518C17.0317 5.45296 16.3599 5.04362 15.7464 5.48071L7.1822 11.5819C6.51686 12.0559 6.62152 13.0002 7.33941 13.0002H9.59459V12.9827H13.9899L10.4085 14.2464L8.82973 19.8553C8.63486 20.5475 9.30655 20.9568 9.92011 20.5197L18.4843 14.4186C19.1497 13.9446 19.0449 13.0002 18.3271 13.0002H14.9072L16.8368 6.14518Z" fill="url(#paint0_radial_8671_26182)"/>
<defs>
<radialGradient id="paint0_radial_8671_26182" cx="0" cy="0" r="1" gradientTransform="matrix(35.3354 11.9269 -0.747622 35.3357 -1.42241 1.24263)" gradientUnits="userSpaceOnUse">
<stop stop-color="white" stop-opacity="0"/>
<stop offset="1" stop-color="white" stop-opacity="0.4"/>
</radialGradient>
</defs>
</svg>
