<svg width="26" height="26" viewBox="0 0 26 26" fill="none" xmlns="http://www.w3.org/2000/svg">
<path d="M17.9161 0.166382H8.08244L0.166016 8.08284V17.9166L8.08244 25.8331H17.9161L25.8325 17.9166V8.08284L17.9161 0.166382ZM9.44307 18.0403L4.37162 12.9688L9.44307 7.89731C11.3603 5.98004 14.5145 5.98004 16.4318 7.89731L21.5032 12.9688L16.4318 18.0403C14.5145 19.9575 11.4222 19.9575 9.44307 18.0403Z" fill="#D6F6D9"/>
<path d="M17.9161 0.166382H8.08244L0.166016 8.08284V17.9166L8.08244 25.8331H17.9161L25.8325 17.9166V8.08284L17.9161 0.166382ZM9.44307 18.0403L4.37162 12.9688L9.44307 7.89731C11.3603 5.98004 14.5145 5.98004 16.4318 7.89731L21.5032 12.9688L16.4318 18.0403C14.5145 19.9575 11.4222 19.9575 9.44307 18.0403Z" fill="url(#paint0_radial_8671_26185)"/>
<defs>
<radialGradient id="paint0_radial_8671_26185" cx="0" cy="0" r="1" gradientTransform="matrix(35.3354 11.9269 -0.747622 35.3357 -1.25639 1.24215)" gradientUnits="userSpaceOnUse">
<stop stop-color="white" stop-opacity="0"/>
<stop offset="1" stop-color="white" stop-opacity="0.4"/>
</radialGradient>
</defs>
</svg>
