<svg width="32" height="32" viewBox="0 0 32 32" fill="none" xmlns="http://www.w3.org/2000/svg">
<rect width="32" height="32" rx="16" fill="#8CC63F"/>
<g clip-path="url(#clip0_9280_4202)">
<path d="M12.75 16.5001C14.8211 16.5001 16.5 14.8211 16.5 12.75C16.5 14.8206 18.1781 16.4993 20.2485 16.5001C18.1781 16.5008 16.5 18.1795 16.5 20.2501C16.5 18.179 14.8211 16.5001 12.75 16.5001C10.6789 16.5001 9 18.179 9 20.2501L9 24.0001L12.75 24.0001C14.8211 24.0001 16.5 22.3211 16.5 20.2501C16.5 22.3211 18.1789 24.0001 20.25 24.0001L24 24.0001L24 20.2501C24 18.1795 22.3219 16.5008 20.2515 16.5001C22.3219 16.4993 24 14.8206 24 12.75L24 9.00005L20.25 9.00005C18.1789 9.00005 16.5 10.679 16.5 12.75C16.5 10.679 14.8211 9.00005 12.75 9.00005L9 9.00005L9 12.75C9 14.8211 10.6789 16.5001 12.75 16.5001Z" fill="#026200"/>
</g>
<defs>
<clipPath id="clip0_9280_4202">
<rect width="15" height="15" fill="white" transform="translate(9 9)"/>
</clipPath>
</defs>
</svg>
