<svg width="24" height="24" viewBox="0 0 24 24" fill="none" xmlns="http://www.w3.org/2000/svg">
<path d="M12 2.50928C14.6794 2.50936 16.8613 4.69116 16.8613 7.37061C16.8612 10.05 14.6794 12.2319 12 12.2319C9.32055 12.2319 7.13875 10.05 7.13867 7.37061C7.13867 4.69111 9.3205 2.50928 12 2.50928ZM12 2.97217C9.57765 2.97217 7.60156 4.94825 7.60156 7.37061C7.60164 9.79289 9.57769 11.769 12 11.769C14.4222 11.769 16.3984 9.79285 16.3984 7.37061C16.3984 4.9483 14.4223 2.97225 12 2.97217Z" fill="#292D32" stroke="#041117" stroke-width="0.925926"/>
<path d="M12 14.5461C12.895 14.5462 13.7694 14.6618 14.6152 14.8997H14.6182C14.7388 14.933 14.8102 15.0562 14.7754 15.1829C14.7422 15.3032 14.6204 15.3751 14.4941 15.3411H14.4951C13.6918 15.1157 12.8532 15.0091 12 15.009C7.84808 15.009 4.27744 17.7163 4.27734 21.259C4.27734 21.383 4.16984 21.4905 4.0459 21.4905C3.922 21.4904 3.81445 21.3829 3.81445 21.259C3.81455 17.6381 7.40274 14.5461 12 14.5461Z" fill="#292D32" stroke="#041117" stroke-width="0.925926"/>
<path d="M17.5557 13.6204C18.684 13.6204 19.7512 14.1017 20.4766 14.926L20.4795 14.9299C21.127 15.6524 21.4902 16.58 21.4902 17.5559C21.4902 17.8676 21.449 18.1778 21.3682 18.469L21.3623 18.4924C21.2811 18.8578 21.1254 19.2431 20.9141 19.5764L20.9102 19.5833L20.9053 19.5901C20.2217 20.7596 18.9318 21.4904 17.5557 21.4905C16.5799 21.4905 15.6533 21.1272 14.9316 20.4719L14.9219 20.4631L14.7139 20.2698C14.5132 20.066 14.3338 19.8328 14.1865 19.5813L14.1816 19.5735L14.0537 19.3459C13.7728 18.8042 13.6202 18.187 13.6201 17.5559C13.6201 16.5844 13.9689 15.6721 14.6006 14.9534L14.7305 14.8127C15.4759 14.0425 16.4764 13.6204 17.5557 13.6204ZM17.5557 14.0833C16.6057 14.0833 15.7281 14.4588 15.0684 15.1292L15.0654 15.1321C14.4367 15.7821 14.083 16.638 14.083 17.5559C14.0831 18.1795 14.2513 18.7953 14.5791 19.3303V19.3313C14.7527 19.6352 14.9789 19.903 15.2334 20.1272V20.1282C15.8734 20.7148 16.6978 21.0374 17.5557 21.0374C18.762 21.0373 19.9026 20.3978 20.5244 19.3596L20.5254 19.3606C20.708 19.0598 20.8467 18.7163 20.9229 18.3792C20.9954 18.1031 21.0273 17.8369 21.0273 17.5647C21.0273 16.7109 20.7082 15.8918 20.1377 15.2542H20.1387C19.4916 14.4992 18.5461 14.0833 17.5557 14.0833Z" fill="#292D32" stroke="#041117" stroke-width="0.925926"/>
<path d="M16.1758 17.3059H18.9443C19.0682 17.3059 19.1757 17.4135 19.1758 17.5374C19.1758 17.6613 19.0683 17.7688 18.9443 17.7688H16.1758C16.0519 17.7687 15.9443 17.6613 15.9443 17.5374C15.9444 17.4135 16.0519 17.306 16.1758 17.3059Z" fill="#292D32" stroke="#041117" stroke-width="0.925926"/>
<path d="M17.5557 15.9531C17.6796 15.9531 17.787 16.0607 17.7871 16.1846V18.9531C17.7871 19.0823 17.6836 19.1846 17.5557 19.1846C17.4318 19.1845 17.3242 19.077 17.3242 18.9531V16.1846C17.3243 16.0607 17.4318 15.9532 17.5557 15.9531Z" fill="#292D32" stroke="#041117" stroke-width="0.925926"/>
</svg>
