<svg width="16" height="17" viewBox="0 0 16 17" fill="none" xmlns="http://www.w3.org/2000/svg">
<path d="M8.48535 2.81934C8.88997 2.5193 9.49001 2.42789 10.4609 2.65039L10.9004 2.76465C12.444 3.21279 13.7383 4.5072 14.1865 6.05078V6.05176C14.5459 7.28 14.4748 8.00309 14.1338 8.45801L14.1328 8.45898C13.9239 8.73821 13.6213 8.90457 13.2725 9.00098C12.9211 9.09802 12.5431 9.11816 12.2129 9.11816H10C9.23289 9.11816 8.71159 8.90305 8.37598 8.52734C8.03408 8.14451 7.83301 7.53782 7.83301 6.65137V4.73828C7.83301 4.40797 7.85371 4.02955 7.9502 3.67773C8.04583 3.32923 8.21033 3.02785 8.48535 2.81934ZM9.51953 2.8584C9.25175 2.85845 8.98931 2.90227 8.77832 3.02734L8.69141 3.08594C8.48195 3.243 8.3561 3.48181 8.28125 3.75C8.20574 4.02067 8.17285 4.35287 8.17285 4.73828V6.6582C8.17286 7.43225 8.3193 7.99327 8.67188 8.35156C9.02858 8.714 9.52071 8.79102 10.0068 8.79102H12.2197C12.6021 8.79102 12.9327 8.75905 13.2031 8.68359C13.4727 8.60835 13.7115 8.4819 13.8711 8.27441L13.8721 8.27344C14.0553 8.03267 14.1108 7.71243 14.1016 7.375C14.0922 7.03151 14.0139 6.62296 13.8799 6.15918V6.15723L13.792 5.89355C13.3083 4.5864 12.1536 3.484 10.8184 3.09766C10.3123 2.94085 9.87825 2.8584 9.51953 2.8584Z" fill="#292D32" stroke="#041117" stroke-width="0.666667"/>
<path d="M6.13672 3.4585C6.22994 3.44031 6.31719 3.49703 6.33984 3.58643C6.35158 3.6559 6.32203 3.721 6.26855 3.7583L6.20703 3.78564C3.20349 4.40453 1.20406 7.20897 1.5498 10.2495L1.59082 10.5454C1.98743 12.9934 3.97186 14.9773 6.41992 15.3735H6.4209C9.58844 15.8813 12.5504 13.8413 13.1797 10.7241L13.1807 10.7222C13.1938 10.655 13.2466 10.6045 13.3096 10.5913H13.376C13.465 10.6087 13.5237 10.697 13.5068 10.7847C12.9057 13.7399 10.3242 15.7847 7.37988 15.7847C7.04325 15.7847 6.70163 15.7594 6.36133 15.7026L6.35938 15.7017C3.77428 15.2843 1.66605 13.1823 1.24902 10.5981C0.710681 7.26675 2.85562 4.12963 6.13574 3.45752L6.13672 3.4585Z" fill="#292D32" stroke="#041117" stroke-width="0.666667"/>
</svg>
