<svg width="17" height="17" viewBox="0 0 17 17" fill="none" xmlns="http://www.w3.org/2000/svg">
<path d="M8.66602 2.16406C8.80019 2.1641 9.00448 2.19322 9.23047 2.33008C9.45595 2.46667 9.7238 2.72389 9.9668 3.21289L9.96777 3.21387L11.1406 5.56055L11.1436 5.56445C11.2228 5.71716 11.3616 5.85153 11.4912 5.94727C11.6203 6.04257 11.791 6.13809 11.9639 6.16699H11.9648L14.0908 6.51953C14.6144 6.60732 14.9319 6.7859 15.126 6.95898C15.3209 7.13288 15.4087 7.31713 15.4473 7.44238C15.4874 7.57266 15.522 7.77608 15.4648 8.03125C15.415 8.25371 15.2912 8.53378 15.0117 8.85156L14.8828 8.98926L13.2305 10.6484C13.0956 10.7834 13.0087 10.973 12.9609 11.1406C12.913 11.3089 12.8883 11.5121 12.9268 11.6934L12.9277 11.6992L13.4014 13.7461C13.5438 14.3655 13.4977 14.7785 13.4043 15.0469C13.3116 15.3129 13.1629 15.4618 13.0547 15.542C12.9319 15.6298 12.7331 15.7314 12.4395 15.7314C12.1593 15.7314 11.7631 15.6411 11.2344 15.3301H11.2334L9.24219 14.1514V14.1504L9.24023 14.1494L9.10352 14.0859C8.96124 14.0339 8.80488 14.0147 8.66699 14.0146C8.52979 14.0146 8.37265 14.0338 8.23047 14.0869L8.09668 14.1504L6.09668 15.3311H6.0957C5.5473 15.6564 5.14079 15.737 4.85742 15.7285C4.57728 15.7201 4.38947 15.6234 4.27637 15.542C4.16718 15.461 4.01788 15.3113 3.9248 15.0459C3.83098 14.7782 3.78521 14.366 3.93066 13.7471V13.7461L4.4043 11.6992L4.40234 11.6982C4.44664 11.5136 4.42086 11.307 4.37305 11.1416C4.32428 10.973 4.23579 10.7827 4.10156 10.6484L2.44824 8.99512C2.07305 8.6199 1.91908 8.29122 1.8623 8.03809C1.80535 7.78409 1.84114 7.58271 1.88281 7.45508C1.92494 7.32622 2.01472 7.14011 2.20996 6.96582C2.40447 6.79227 2.72116 6.61405 3.24121 6.52637L3.24023 6.52539L5.36719 6.17285C5.54021 6.14401 5.71172 6.0492 5.84082 5.95312C5.96939 5.8574 6.10935 5.71977 6.18555 5.56152L7.36328 3.21387L7.36426 3.21289C7.60719 2.72399 7.87514 2.4667 8.10059 2.33008C8.32678 2.19305 8.53181 2.16406 8.66602 2.16406ZM8.66602 2.50391C8.42887 2.50391 8.22461 2.63033 8.07129 2.77734C7.91444 2.92785 7.77589 3.13221 7.66113 3.36816L6.48145 5.71484C6.39298 5.89177 6.2327 6.07445 6.03223 6.22266C5.88207 6.33359 5.72072 6.41717 5.56738 6.46582L5.41699 6.50195L3.29785 6.85547C3.04377 6.8967 2.81377 6.97068 2.62793 7.07715C2.4458 7.18153 2.27521 7.33649 2.20312 7.55273C2.12888 7.77584 2.18169 8.00604 2.27051 8.19531C2.36183 8.38988 2.50957 8.58256 2.69238 8.76172L4.34375 10.4131C4.49613 10.5655 4.62276 10.7925 4.69629 11.0488C4.75138 11.2408 4.77208 11.4351 4.75879 11.6094L4.73438 11.7764L4.26074 13.8223C4.17801 14.1784 4.16032 14.4726 4.19238 14.7061C4.22283 14.9273 4.3072 15.1481 4.48535 15.2754C4.66084 15.4007 4.89325 15.4124 5.1123 15.374C5.34302 15.3336 5.61702 15.2288 5.93262 15.0459L5.93555 15.0449L7.92871 13.8643L7.93164 13.8633C8.12408 13.7468 8.38898 13.6777 8.66602 13.6777C8.94205 13.6778 9.20876 13.7465 9.41016 13.8652V13.8643L11.4023 15.0439C11.7162 15.2315 11.9915 15.3373 12.2246 15.377C12.4465 15.4146 12.679 15.3993 12.8525 15.2754C13.0339 15.1459 13.1147 14.9199 13.1436 14.7021C13.1743 14.4697 13.1571 14.1771 13.0781 13.8252L13.0771 13.8223L12.6035 11.7764H12.6045C12.5039 11.3367 12.6745 10.7405 12.9951 10.4131L14.6484 8.75977C14.8303 8.57785 14.9754 8.38539 15.0654 8.19238C15.1535 8.00344 15.2036 7.77948 15.1377 7.56152L15.1387 7.56055L15.1357 7.55273L15.1035 7.47363C15.0201 7.29807 14.87 7.16838 14.7109 7.07715C14.5248 6.97045 14.2937 6.89667 14.0391 6.85547H14.04L11.9141 6.50195H11.915C11.7204 6.46909 11.4993 6.3708 11.2988 6.22266C11.0984 6.07445 10.9391 5.89177 10.8506 5.71484L9.67676 3.36816C9.5585 3.13178 9.41787 2.92694 9.25977 2.77637C9.10627 2.63018 8.903 2.50399 8.66602 2.50391Z" fill="#292D32" stroke="#041117" stroke-width="0.666667"/>
</svg>
