<svg width="24" height="25" viewBox="0 0 24 25" fill="none" xmlns="http://www.w3.org/2000/svg">
<path d="M9.55018 15.7412L18.0252 7.26619C18.2252 7.06619 18.4585 6.96619 18.7252 6.96619C18.9918 6.96619 19.2252 7.06619 19.4252 7.26619C19.6252 7.46619 19.7252 7.70385 19.7252 7.97919C19.7252 8.25452 19.6252 8.49185 19.4252 8.69119L10.2502 17.8912C10.0502 18.0912 9.81685 18.1912 9.55018 18.1912C9.28351 18.1912 9.05018 18.0912 8.85018 17.8912L4.55018 13.5912C4.35018 13.3912 4.25418 13.1539 4.26218 12.8792C4.27018 12.6045 4.37451 12.3669 4.57518 12.1662C4.77585 11.9655 5.01351 11.8655 5.28818 11.8662C5.56285 11.8669 5.80018 11.9669 6.00018 12.1662L9.55018 15.7412Z" fill="#333740"/>
</svg>
