<svg preserveAspectRatio="none" width="100%" height="100%" overflow="visible" style="display: block;" viewBox="0 0 20 20" fill="none" xmlns="http://www.w3.org/2000/svg">
<g id="material-symbols:arrow-outward-rounded">
<path id="Vector" d="M13.4095 7.70378L6.33201 14.7813C6.18622 14.9271 6.00066 15 5.77535 15C5.55003 15 5.36448 14.9271 5.21869 14.7813C5.0729 14.6355 5 14.45 5 14.2247C5 13.9993 5.0729 13.8138 5.21869 13.668L12.2962 6.59046H6.25248C6.02717 6.59046 5.83844 6.51412 5.68628 6.36143C5.53413 6.20875 5.45779 6.02001 5.45726 5.79523C5.45673 5.57044 5.53307 5.38171 5.68628 5.22903C5.8395 5.07634 6.02823 5 6.25248 5H14.2048C14.4301 5 14.6191 5.07634 14.7718 5.22903C14.9245 5.38171 15.0005 5.57044 15 5.79523V13.7475C15 13.9728 14.9237 14.1618 14.771 14.3145C14.6183 14.4672 14.4296 14.5433 14.2048 14.5427C13.98 14.5422 13.7913 14.4659 13.6386 14.3137C13.4859 14.1616 13.4095 13.9728 13.4095 13.7475V7.70378Z" fill="var(--fill-0, #111215)"/>
</g>
</svg>
