<svg width="12" height="12" viewBox="0 0 12 12" fill="none" xmlns="http://www.w3.org/2000/svg">
<path d="M2.61902 6.78602L6.39452 10.6637C6.54863 10.822 6.6226 11.0067 6.61643 11.2177C6.61027 11.4287 6.52988 11.6134 6.37526 11.7717C6.22116 11.9167 6.04137 11.9927 5.8359 11.9996C5.63043 12.0064 5.45065 11.9305 5.29655 11.7717L0.211167 6.5486C0.134116 6.46947 0.07941 6.38374 0.0470485 6.29141C0.014687 6.19908 -0.000979933 6.10016 4.74164e-05 5.99464C0.00107477 5.88913 0.0172553 5.79021 0.0485894 5.69788C0.0799236 5.60555 0.134373 5.51982 0.211938 5.44068L5.29732 0.217627C5.43858 0.0725421 5.61528 0 5.82743 0C6.03958 0 6.22244 0.0725421 6.37603 0.217627C6.53013 0.375901 6.60719 0.563984 6.60719 0.781876C6.60719 0.999767 6.53013 1.18759 6.37603 1.34533L2.61902 5.20327L11.2295 5.20327C11.4478 5.20327 11.6309 5.27924 11.7789 5.43119C11.9268 5.58313 12.0005 5.77095 12 5.99464C11.9995 6.21834 11.9255 6.40642 11.7781 6.55889C11.6307 6.71136 11.4478 6.78707 11.2295 6.78602L2.61902 6.78602Z" fill="#111215"/>
</svg>
