<svg width="25" height="25" viewBox="0 0 25 25" fill="none" xmlns="http://www.w3.org/2000/svg">
<path d="M22.333 17.1914V5.12136C22.333 3.92136 21.353 3.03136 20.163 3.13136H20.103C18.003 3.31136 14.813 4.38136 13.033 5.50136L12.863 5.61136C12.573 5.79136 12.093 5.79136 11.803 5.61136L11.553 5.46136C9.77301 4.35136 6.59301 3.29136 4.49301 3.12136C3.30301 3.02136 2.33301 3.92136 2.33301 5.11136V17.1914C2.33301 18.1514 3.11301 19.0514 4.07301 19.1714L4.36301 19.2114C6.53301 19.5014 9.88301 20.6014 11.803 21.6514L11.843 21.6714C12.113 21.8214 12.543 21.8214 12.803 21.6714C14.723 20.6114 18.083 19.5014 20.263 19.2114L20.593 19.1714C21.553 19.0514 22.333 18.1514 22.333 17.1914Z" stroke="#BEC1C2" stroke-width="1.5" stroke-linecap="round" stroke-linejoin="round"/>
<path d="M12.333 5.94141V20.9414" stroke="#BEC1C2" stroke-width="1.5" stroke-linecap="round" stroke-linejoin="round"/>
<path d="M8.08301 8.94141H5.83301" stroke="#BEC1C2" stroke-width="1.5" stroke-linecap="round" stroke-linejoin="round"/>
<path d="M8.83301 11.9414H5.83301" stroke="#BEC1C2" stroke-width="1.5" stroke-linecap="round" stroke-linejoin="round"/>
</svg>
