<svg width="16" height="12" viewBox="0 0 16 12" fill="none" xmlns="http://www.w3.org/2000/svg">
<path d="M5.55018 9.15012L14.0252 0.675122C14.2252 0.475122 14.4585 0.375122 14.7252 0.375122C14.9918 0.375122 15.2252 0.475122 15.4252 0.675122C15.6252 0.875122 15.7252 1.11279 15.7252 1.38812C15.7252 1.66346 15.6252 1.90079 15.4252 2.10012L6.25018 11.3001C6.05018 11.5001 5.81685 11.6001 5.55018 11.6001C5.28351 11.6001 5.05018 11.5001 4.85018 11.3001L0.55018 7.00012C0.35018 6.80012 0.25418 6.56279 0.26218 6.28812C0.27018 6.01346 0.374513 5.77579 0.57518 5.57512C0.775847 5.37446 1.01351 5.27446 1.28818 5.27512C1.56285 5.27579 1.80018 5.37579 2.00018 5.57512L5.55018 9.15012Z" fill="white"/>
</svg>
