<svg width="24" height="25" viewBox="0 0 24 25" fill="none" xmlns="http://www.w3.org/2000/svg">
<g clip-path="url(#clip0_8865_8346)">
<path d="M10.5999 13.2227V9.22266C10.5999 8.67266 10.1499 8.22266 9.59987 8.22266H5.59987V6.22266H9.59987C10.1499 6.22266 10.5999 5.77266 10.5999 5.22266C10.5999 4.67266 10.1499 4.22266 9.59987 4.22266H8.09987C8.09987 3.67266 7.64987 3.22266 7.09987 3.22266C6.54987 3.22266 6.09987 3.67266 6.09987 4.22266H4.59987C4.04987 4.22266 3.59987 4.67266 3.59987 5.22266V9.22266C3.59987 9.77266 4.04987 10.2227 4.59987 10.2227H8.59987V12.2227H4.59987C4.04987 12.2227 3.59987 12.6727 3.59987 13.2227C3.59987 13.7727 4.04987 14.2227 4.59987 14.2227H6.09987C6.09987 14.7727 6.54987 15.2227 7.09987 15.2227C7.64987 15.2227 8.09987 14.7727 8.09987 14.2227H9.59987C10.1499 14.2227 10.5999 13.7727 10.5999 13.2227Z" fill="#111215"/>
<path d="M18.4798 13.4429L13.5298 18.3929L11.4098 16.2729C11.0198 15.8829 10.3898 15.8829 9.99979 16.2729C9.60979 16.6629 9.60979 17.2929 9.99979 17.6829L12.8298 20.5129C13.2198 20.9029 13.8498 20.9029 14.2398 20.5129L19.8998 14.8529C20.2898 14.4629 20.2898 13.8329 19.8998 13.4429C19.4998 13.0529 18.8698 13.0529 18.4798 13.4429Z" fill="#111215"/>
</g>
<defs>
<clipPath id="clip0_8865_8346">
<rect width="24" height="24" fill="white" transform="translate(0 0.222656)"/>
</clipPath>
</defs>
</svg>
