<svg width="24" height="24" viewBox="0 0 24 24" fill="none" xmlns="http://www.w3.org/2000/svg">
<path d="M18.1756 2.74072H16.4163C14.3978 2.74072 13.333 3.80554 13.333 5.82406V7.58332C13.333 9.60183 14.3978 10.6666 16.4163 10.6666H18.1756C20.1941 10.6666 21.2589 9.60183 21.2589 7.58332V5.82406C21.2589 3.80554 20.1941 2.74072 18.1756 2.74072Z" fill="#041117"/>
<path d="M7.59209 13.3237H5.83283C3.80505 13.3237 2.74023 14.3885 2.74023 16.4071V18.1663C2.74023 20.1941 3.80505 21.2589 5.82357 21.2589H7.58283C9.60135 21.2589 10.6662 20.1941 10.6662 18.1756V16.4163C10.6754 14.3885 9.6106 13.3237 7.59209 13.3237Z" fill="#041117"/>
<path d="M6.71246 10.6852C8.90625 10.6852 10.6847 8.90674 10.6847 6.71294C10.6847 4.51915 8.90625 2.74072 6.71246 2.74072C4.51866 2.74072 2.74023 4.51915 2.74023 6.71294C2.74023 8.90674 4.51866 10.6852 6.71246 10.6852Z" fill="#041117"/>
<path d="M17.2867 21.2591C19.4805 21.2591 21.2589 19.4807 21.2589 17.2869C21.2589 15.0931 19.4805 13.3147 17.2867 13.3147C15.0929 13.3147 13.3145 15.0931 13.3145 17.2869C13.3145 19.4807 15.0929 21.2591 17.2867 21.2591Z" fill="#041117"/>
</svg>
