<svg width="33" height="32" viewBox="0 0 33 32" fill="none" xmlns="http://www.w3.org/2000/svg">
<path d="M13.4829 20.2005L24.7829 8.90049C25.0496 8.63382 25.3607 8.50049 25.7163 8.50049C26.0718 8.50049 26.3829 8.63382 26.6496 8.90049C26.9163 9.16716 27.0496 9.48404 27.0496 9.85116C27.0496 10.2183 26.9163 10.5347 26.6496 10.8005L14.4163 23.0672C14.1496 23.3338 13.8385 23.4672 13.4829 23.4672C13.1274 23.4672 12.8163 23.3338 12.5496 23.0672L6.81626 17.3338C6.54959 17.0672 6.42159 16.7507 6.43226 16.3845C6.44292 16.0183 6.58203 15.7014 6.84959 15.4338C7.11714 15.1663 7.43403 15.0329 7.80026 15.0338C8.16648 15.0347 8.48292 15.168 8.74959 15.4338L13.4829 20.2005Z" fill="#0DA500"/>
</svg>
