<svg width="17" height="17" viewBox="0 0 17 17" fill="none" xmlns="http://www.w3.org/2000/svg">
<path d="M11.293 2.85107C13.427 2.85123 15.166 4.60048 15.166 6.74463C15.166 8.93417 14.2007 10.7774 12.9111 12.189C11.6186 13.6037 10.018 14.5645 8.79785 14.9829L8.79297 14.9849C8.67329 15.0279 8.51418 15.0512 8.33301 15.0513C8.15157 15.0513 7.99185 15.028 7.87207 14.9849L7.86719 14.9829L7.63477 14.8979C6.44894 14.4424 4.96583 13.5143 3.75391 12.187C2.46426 10.7745 1.49902 8.93076 1.49902 6.74463C1.49908 4.59406 3.23855 2.85107 5.37305 2.85107C6.4111 2.85117 7.37883 3.25618 8.0957 3.979L8.33301 4.21826L8.56934 3.979C9.28631 3.256 10.2547 2.85107 11.293 2.85107ZM11.2998 3.18506C10.1807 3.18506 9.14106 3.70827 8.47168 4.61279L8.4707 4.61377C8.45106 4.64025 8.40603 4.66846 8.33887 4.66846C8.27198 4.66833 8.2276 4.64019 8.20801 4.61377L8.20605 4.61182L8.07422 4.4458C7.39467 3.63936 6.42245 3.18516 5.37305 3.18506C3.42052 3.18506 1.83306 4.78238 1.83301 6.74463C1.83301 9.13724 2.98528 10.9899 4.31445 12.2993C5.63942 13.6045 7.16376 14.3947 7.97852 14.6733L7.98047 14.6743C8.09112 14.7112 8.22844 14.7212 8.33594 14.7212C8.44344 14.7212 8.58073 14.7112 8.69141 14.6743L8.69434 14.6733C9.50525 14.3948 11.0286 13.6057 12.3545 12.3013C13.6846 10.9927 14.8389 9.14066 14.8389 6.74463C14.8388 4.78253 13.2521 3.18531 11.2998 3.18506Z" fill="#292D32" stroke="#041117" stroke-width="0.666667"/>
</svg>
