<svg width="23" height="24" viewBox="0 0 23 24" fill="none" xmlns="http://www.w3.org/2000/svg">
<path d="M11.667 2.50928C16.9019 2.50949 21.1572 6.76557 21.1572 12.0005C21.157 17.2352 16.9017 21.4905 11.667 21.4907C6.43207 21.4907 2.176 17.2354 2.17578 12.0005C2.17578 9.9158 2.83781 7.93902 4.0918 6.27881L4.09082 6.27783C4.16484 6.18124 4.30929 6.15963 4.41504 6.23975C4.5212 6.3204 4.53738 6.46595 4.46387 6.56299C3.2733 8.13421 2.63867 10.02 2.63867 12.0005C2.63889 16.9782 6.68922 21.0278 11.667 21.0278C16.6446 21.0276 20.6941 16.9781 20.6943 12.0005C20.6943 7.02271 16.6447 2.97238 11.667 2.97217C11.5431 2.97217 11.4355 2.86467 11.4355 2.74072C11.4356 2.61683 11.5431 2.50928 11.667 2.50928Z" fill="#292D32" stroke="#041117" stroke-width="0.925926"/>
<path d="M11.667 5.28711C15.365 5.28711 18.3798 8.30205 18.3799 12C18.3799 15.698 15.365 18.7129 11.667 18.7129C7.96904 18.7128 4.9541 15.698 4.9541 12C4.95419 11.8762 5.0617 11.7686 5.18555 11.7686C5.30944 11.7686 5.41691 11.8761 5.41699 12C5.41699 15.4501 8.21693 18.2499 11.667 18.25C15.1171 18.25 17.917 15.4501 17.917 12C17.9169 8.54993 15.1171 5.75 11.667 5.75C11.5431 5.74992 11.4355 5.64245 11.4355 5.51855C11.4356 5.39471 11.5431 5.28719 11.667 5.28711Z" fill="#292D32" stroke="#041117" stroke-width="0.925926"/>
<path d="M11.667 8.0647C13.8372 8.0647 15.6025 9.83001 15.6025 12.0002C15.6024 14.1704 13.8371 15.9348 11.667 15.9348C11.5431 15.9348 11.4355 15.8273 11.4355 15.7034C11.4357 15.5796 11.5432 15.472 11.667 15.4719C13.58 15.4719 15.1395 13.9132 15.1396 12.0002C15.1396 10.0871 13.5801 8.52759 11.667 8.52759C11.5431 8.52753 11.4355 8.42005 11.4355 8.29614C11.4356 8.17228 11.5431 8.06476 11.667 8.0647Z" fill="#292D32" stroke="#041117" stroke-width="0.925926"/>
</svg>
