<svg width="139" height="25" viewBox="0 0 139 25" fill="none" xmlns="http://www.w3.org/2000/svg">
<path d="M132.369 19.9588C130.999 19.9588 129.816 19.6634 128.82 19.0724C127.83 18.4754 127.068 17.6321 126.534 16.5426C126 15.447 125.733 14.1574 125.733 12.674C125.733 11.2152 126 9.9349 126.534 8.8331C127.074 7.72514 127.827 6.8634 128.793 6.24787C129.76 5.62618 130.895 5.31534 132.2 5.31534C133.042 5.31534 133.836 5.45691 134.584 5.74006C135.337 6.01705 136.001 6.44792 136.576 7.03267C137.157 7.61742 137.614 8.36222 137.946 9.26705C138.278 10.1657 138.444 11.2367 138.444 12.4801V13.505H127.246V11.2521H135.357C135.351 10.612 135.218 10.0426 134.957 9.54403C134.696 9.0393 134.332 8.64228 133.863 8.35298C133.401 8.06368 132.861 7.91903 132.244 7.91903C131.586 7.91903 131.008 8.08523 130.51 8.41761C130.012 8.74385 129.623 9.17472 129.345 9.71023C129.072 10.2396 128.933 10.8213 128.927 11.4553V13.4219C128.927 14.2467 129.072 14.9545 129.362 15.5455C129.653 16.1302 130.059 16.5795 130.581 16.8935C131.103 17.2012 131.714 17.3551 132.413 17.3551C132.882 17.3551 133.306 17.2874 133.685 17.152C134.065 17.0104 134.394 16.8042 134.673 16.5334C134.951 16.2625 135.162 15.9271 135.304 15.527L138.31 15.8778C138.121 16.7027 137.759 17.4228 137.225 18.0384C136.698 18.6477 136.022 19.1217 135.197 19.4602C134.373 19.7926 133.43 19.9588 132.369 19.9588Z" fill="white"/>
<path d="M118.787 19.9588C117.423 19.9588 116.252 19.648 115.274 19.0263C114.301 18.4046 113.551 17.5459 113.024 16.4503C112.502 15.3485 112.241 14.0805 112.241 12.6463C112.241 11.206 112.508 9.9349 113.041 8.8331C113.575 7.72514 114.328 6.8634 115.301 6.24787C116.279 5.62618 117.435 5.31534 118.769 5.31534C119.878 5.31534 120.86 5.5277 121.714 5.95241C122.573 6.37098 123.258 6.96496 123.768 7.73438C124.278 8.49763 124.569 9.39015 124.64 10.4119H121.562C121.438 9.72869 121.141 9.15933 120.673 8.70384C120.21 8.24219 119.591 8.01136 118.814 8.01136C118.156 8.01136 117.578 8.19602 117.08 8.56534C116.581 8.9285 116.193 9.4517 115.914 10.1349C115.642 10.8182 115.505 11.6368 115.505 12.5909C115.505 13.5573 115.642 14.3883 115.914 15.0838C116.187 15.7732 116.57 16.3056 117.062 16.6811C117.56 17.0504 118.144 17.2351 118.814 17.2351C119.288 17.2351 119.712 17.1428 120.086 16.9581C120.465 16.7673 120.783 16.4934 121.038 16.1364C121.293 15.7794 121.468 15.3454 121.562 14.8345H124.64C124.563 15.8378 124.278 16.7273 123.786 17.5028C123.294 18.2723 122.624 18.8755 121.776 19.3125C120.928 19.7434 119.932 19.9588 118.787 19.9588Z" fill="white"/>
<path d="M103.34 19.968C102.474 19.968 101.695 19.808 101.001 19.4879C100.313 19.1617 99.7674 18.6816 99.3642 18.0476C98.9669 17.4136 98.7682 16.6319 98.7682 15.7024C98.7682 14.9022 98.9106 14.2405 99.1952 13.7173C99.4798 13.1941 99.8682 12.7756 100.36 12.4616C100.853 12.1477 101.407 11.9107 102.024 11.7507C102.646 11.5845 103.29 11.4645 103.954 11.3906C104.754 11.3045 105.404 11.2275 105.902 11.1598C106.4 11.0859 106.762 10.9751 106.987 10.8274C107.218 10.6735 107.334 10.4366 107.334 10.1165V10.0611C107.334 9.36553 107.135 8.82694 106.738 8.44531C106.341 8.06368 105.768 7.87287 105.021 7.87287C104.233 7.87287 103.607 8.05137 103.144 8.40838C102.688 8.76539 102.379 9.18703 102.219 9.6733L99.213 9.23011C99.4502 8.36837 99.8415 7.6482 100.387 7.0696C100.933 6.48485 101.6 6.04782 102.388 5.75852C103.177 5.46307 104.049 5.31534 105.003 5.31534C105.662 5.31534 106.317 5.39536 106.969 5.5554C107.621 5.71544 108.217 5.98011 108.757 6.34943C109.296 6.71259 109.729 7.2081 110.056 7.83594C110.388 8.46378 110.554 9.24858 110.554 10.1903V19.6818H107.458V17.7337H107.352C107.156 18.1276 106.88 18.4969 106.524 18.8416C106.174 19.1802 105.733 19.4541 105.199 19.6634C104.671 19.8665 104.052 19.968 103.34 19.968ZM104.176 17.5121C104.823 17.5121 105.383 17.3797 105.857 17.1151C106.332 16.8442 106.696 16.4872 106.951 16.044C107.212 15.6009 107.343 15.1177 107.343 14.5945V12.9233C107.242 13.0095 107.07 13.0895 106.827 13.1634C106.59 13.2372 106.323 13.3018 106.026 13.3572C105.73 13.4126 105.436 13.4619 105.146 13.505C104.855 13.5481 104.603 13.585 104.39 13.6158C103.909 13.6835 103.479 13.7943 103.1 13.9482C102.72 14.102 102.421 14.3175 102.202 14.5945C101.982 14.8653 101.872 15.2161 101.872 15.647C101.872 16.2625 102.089 16.7273 102.522 17.0412C102.955 17.3551 103.506 17.5121 104.176 17.5121Z" fill="white"/>
<path d="M97.061 0.772373V19.6815H93.8412V0.772373H97.061Z" fill="white"/>
<path d="M79.15 25V5.5H82.3165V7.84517H82.5033C82.6693 7.50047 82.9035 7.13423 83.206 6.74645C83.5084 6.35251 83.9175 6.01705 84.4334 5.74006C84.9493 5.45691 85.6075 5.31534 86.408 5.31534C87.4635 5.31534 88.4152 5.59541 89.2632 6.15554C90.1171 6.70952 90.7931 7.53125 91.2912 8.62074C91.7952 9.70407 92.0472 11.0336 92.0472 12.6094C92.0472 14.1667 91.8011 15.4901 91.3089 16.5795C90.8168 17.669 90.1467 18.5 89.2988 19.0724C88.4508 19.6449 87.4902 19.9311 86.4169 19.9311C85.6342 19.9311 84.9849 19.7957 84.469 19.5249C83.9531 19.254 83.538 18.9278 83.2238 18.5462C82.9154 18.1584 82.6752 17.7921 82.5033 17.4474H82.3699V25H79.15ZM82.3076 12.5909C82.3076 13.508 82.4321 14.3113 82.6812 15.0007C82.9362 15.6901 83.3008 16.2287 83.7752 16.6165C84.2555 16.9981 84.8366 17.1889 85.5186 17.1889C86.2301 17.1889 86.8261 16.992 87.3064 16.598C87.7867 16.1979 88.1484 15.6532 88.3915 14.9638C88.6406 14.2682 88.7651 13.4773 88.7651 12.5909C88.7651 11.7107 88.6435 10.929 88.4004 10.2457C88.1573 9.5625 87.7956 9.02699 87.3153 8.6392C86.835 8.25142 86.2361 8.05753 85.5186 8.05753C84.8307 8.05753 84.2466 8.24527 83.7663 8.62074C83.286 8.99621 82.9213 9.52249 82.6723 10.1996C82.4292 10.8767 82.3076 11.6738 82.3076 12.5909Z" fill="white"/>
<path d="M77.4205 5.50018V8.08541H69.5666V5.50018H77.4205ZM71.5056 2.10245H74.7255V15.4164C74.7255 15.8657 74.7907 16.2104 74.9211 16.4505C75.0575 16.6844 75.2354 16.8444 75.4548 16.9306C75.6742 17.0168 75.9173 17.0598 76.1842 17.0598C76.3858 17.0598 76.5696 17.0445 76.7356 17.0137C76.9076 16.9829 77.0381 16.9552 77.127 16.9306L77.6696 19.5435C77.4976 19.6051 77.2515 19.6728 76.9313 19.7466C76.617 19.8205 76.2316 19.8636 75.775 19.8759C74.9686 19.9005 74.2422 19.7743 73.5958 19.4973C72.9495 19.2142 72.4366 18.7772 72.0571 18.1863C71.6835 17.5953 71.4997 16.8567 71.5056 15.9703V2.10245Z" fill="white"/>
<path d="M62.7627 19.9588C61.393 19.9588 60.21 19.6634 59.2138 19.0724C58.2235 18.4754 57.4616 17.6321 56.9279 16.5426C56.3942 15.447 56.1274 14.1574 56.1274 12.674C56.1274 11.2152 56.3942 9.9349 56.9279 8.8331C57.4675 7.72514 58.2206 6.8634 59.1871 6.24787C60.1537 5.62618 61.2892 5.31534 62.5937 5.31534C63.4358 5.31534 64.2303 5.45691 64.9775 5.74006C65.7306 6.01705 66.3947 6.44792 66.9699 7.03267C67.551 7.61742 68.0076 8.36222 68.3397 9.26705C68.6717 10.1657 68.8378 11.2367 68.8378 12.4801V13.505H57.6394V11.2521H65.7513C65.7454 10.612 65.612 10.0426 65.3511 9.54403C65.0902 9.0393 64.7255 8.64228 64.257 8.35298C63.7945 8.06368 63.2549 7.91903 62.6382 7.91903C61.98 7.91903 61.4019 8.08523 60.9038 8.41761C60.4057 8.74385 60.0173 9.17472 59.7386 9.71023C59.4658 10.2396 59.3265 10.8213 59.3205 11.4553V13.4219C59.3205 14.2467 59.4658 14.9545 59.7564 15.5455C60.0469 16.1302 60.4531 16.5795 60.9749 16.8935C61.4967 17.2012 62.1075 17.3551 62.8072 17.3551C63.2757 17.3551 63.6996 17.2874 64.0791 17.152C64.4586 17.0104 64.7877 16.8042 65.0664 16.5334C65.3451 16.2625 65.5556 15.9271 65.698 15.527L68.7043 15.8778C68.5146 16.7027 68.1529 17.4228 67.6192 18.0384C67.0914 18.6477 66.4155 19.1217 65.5912 19.4602C64.767 19.7926 63.8242 19.9588 62.7627 19.9588Z" fill="white"/>
<path d="M46.9153 15.2312L46.9064 11.1964H47.4223L52.3321 5.49965H56.0945L50.0551 12.4798H49.388L46.9153 15.2312ZM43.9801 19.6815V0.772373H47.1999V19.6815H43.9801ZM52.5545 19.6815L48.1072 13.2276L50.2774 10.8732L56.4058 19.6815H52.5545Z" fill="white"/>
<path d="M35.0126 19.6817V5.49991H38.1346V7.86355H38.2769C38.526 7.04489 38.9529 6.41398 39.5577 5.97079C40.1685 5.52146 40.8653 5.29679 41.648 5.29679C41.8259 5.29679 42.0245 5.30602 42.2439 5.32449C42.4692 5.3368 42.656 5.35834 42.8043 5.38912V8.46369C42.6679 8.41445 42.4515 8.37136 42.155 8.33443C41.8644 8.29134 41.5827 8.2698 41.31 8.2698C40.7229 8.2698 40.1952 8.40214 39.7267 8.66682C39.2642 8.92534 38.8995 9.28542 38.6327 9.74707C38.3659 10.2087 38.2324 10.7412 38.2324 11.3444V19.6817H35.0126Z" fill="white"/>
<path d="M25.5248 19.968C24.659 19.968 23.8793 19.808 23.1855 19.4879C22.4976 19.1617 21.9521 18.6816 21.5489 18.0476C21.1516 17.4136 20.9529 16.6319 20.9529 15.7024C20.9529 14.9022 21.0953 14.2405 21.3799 13.7173C21.6645 13.1941 22.0529 12.7756 22.5451 12.4616C23.0373 12.1477 23.5917 11.9107 24.2084 11.7507C24.831 11.5845 25.4744 11.4645 26.1385 11.3906C26.939 11.3045 27.5883 11.2275 28.0864 11.1598C28.5845 11.0859 28.9462 10.9751 29.1716 10.8274C29.4028 10.6735 29.5185 10.4366 29.5185 10.1165V10.0611C29.5185 9.36553 29.3198 8.82694 28.9225 8.44531C28.5252 8.06368 27.953 7.87287 27.2059 7.87287C26.4172 7.87287 25.7916 8.05137 25.3291 8.40838C24.8725 8.76539 24.5642 9.18703 24.4041 9.6733L21.3977 9.23011C21.6349 8.36837 22.0262 7.6482 22.5718 7.0696C23.1173 6.48485 23.7844 6.04782 24.5731 5.75852C25.3617 5.46307 26.2334 5.31534 27.1881 5.31534C27.8463 5.31534 28.5015 5.39536 29.1538 5.5554C29.806 5.71544 30.402 5.98011 30.9416 6.34943C31.4812 6.71259 31.9141 7.2081 32.2402 7.83594C32.5723 8.46378 32.7383 9.24858 32.7383 10.1903V19.6818H29.643V17.7337H29.5362C29.3406 18.1276 29.0648 18.4969 28.709 18.8416C28.3592 19.1802 27.9174 19.4541 27.3837 19.6634C26.856 19.8665 26.2363 19.968 25.5248 19.968ZM26.3609 17.5121C27.0072 17.5121 27.5676 17.3797 28.0419 17.1151C28.5163 16.8442 28.881 16.4872 29.136 16.044C29.3969 15.6009 29.5273 15.1177 29.5273 14.5945V12.9233C29.4265 13.0095 29.2546 13.0895 29.0115 13.1634C28.7743 13.2372 28.5074 13.3018 28.2109 13.3572C27.9145 13.4126 27.6209 13.4619 27.3304 13.505C27.0398 13.5481 26.7878 13.585 26.5743 13.6158C26.094 13.6835 25.6641 13.7943 25.2846 13.9482C24.9051 14.102 24.6057 14.3175 24.3863 14.5945C24.1669 14.8653 24.0572 15.2161 24.0572 15.647C24.0572 16.2625 24.2736 16.7273 24.7065 17.0412C25.1393 17.3551 25.6908 17.5121 26.3609 17.5121Z" fill="white"/>
<path d="M6.10352e-05 0.772461H4.03821L9.44613 14.4742H9.6596L15.0675 0.772461H19.1057V19.6816H15.9392V6.69078H15.7702L10.7358 19.6262H8.36988L3.33554 6.66309H3.16654V19.6816H6.10352e-05V0.772461Z" fill="white"/>
</svg>
