<svg width="21" height="20" viewBox="0 0 21 20" fill="none" xmlns="http://www.w3.org/2000/svg">
<path d="M10.5208 17.5002C10.2847 17.5002 10.0869 17.4202 9.92748 17.2602C9.76804 17.1002 9.68804 16.9025 9.68748 16.6669V15.7086C9.06248 15.5697 8.51387 15.3266 8.04165 14.9794C7.56943 14.6322 7.18748 14.1461 6.89582 13.5211C6.7986 13.3266 6.79526 13.1219 6.88582 12.9069C6.97637 12.6919 7.13943 12.5355 7.37498 12.4377C7.56943 12.3544 7.77082 12.358 7.97915 12.4486C8.18748 12.5391 8.34721 12.6883 8.45832 12.8961C8.69443 13.3127 8.99304 13.6289 9.35415 13.8444C9.71526 14.06 10.1597 14.1675 10.6875 14.1669C11.2569 14.1669 11.7394 14.0386 12.135 13.7819C12.5305 13.5252 12.7286 13.1258 12.7292 12.5836C12.7292 12.0975 12.5764 11.7122 12.2708 11.4277C11.9653 11.1433 11.2569 10.8202 10.1458 10.4586C8.95137 10.0836 8.13193 9.6358 7.68748 9.11525C7.24304 8.59469 7.02082 7.95914 7.02082 7.20858C7.02082 6.3058 7.31248 5.60441 7.89582 5.10441C8.47915 4.60441 9.07637 4.31969 9.68748 4.25025V3.33358C9.68748 3.09747 9.76748 2.89941 9.92748 2.73941C10.0875 2.57941 10.2853 2.49969 10.5208 2.50025C10.7564 2.5008 10.9544 2.5808 11.115 2.74025C11.2755 2.89969 11.3553 3.09747 11.3542 3.33358V4.25025C11.8819 4.33358 12.3403 4.50386 12.7292 4.76108C13.118 5.0183 13.4375 5.33414 13.6875 5.70858C13.8125 5.88914 13.8369 6.09052 13.7608 6.31275C13.6847 6.53497 13.5283 6.69469 13.2917 6.79191C13.0972 6.87525 12.8958 6.87886 12.6875 6.80275C12.4792 6.72664 12.2847 6.59108 12.1042 6.39608C11.9236 6.20108 11.7117 6.05191 11.4683 5.94858C11.225 5.84525 10.923 5.79302 10.5625 5.79191C9.95137 5.79191 9.4861 5.92747 9.16665 6.19858C8.84721 6.46969 8.68748 6.80636 8.68748 7.20858C8.68748 7.66691 8.89582 8.02802 9.31248 8.29191C9.72915 8.5558 10.4514 8.83358 11.4792 9.12525C12.4375 9.40302 13.1633 9.84414 13.6567 10.4486C14.15 11.053 14.3964 11.7508 14.3958 12.5419C14.3958 13.528 14.1042 14.278 13.5208 14.7919C12.9375 15.3058 12.2153 15.6252 11.3542 15.7502V16.6669C11.3542 16.903 11.2742 17.1011 11.1142 17.2611C10.9542 17.4211 10.7564 17.5008 10.5208 17.5002Z" fill="#333740"/>
</svg>
