<svg width="24" height="24" viewBox="0 0 24 24" fill="none" xmlns="http://www.w3.org/2000/svg">
<path d="M9.22168 2.50928H14.7773C17.2381 2.50928 18.8844 3.0372 19.9238 4.07666C20.963 5.11613 21.4902 6.76182 21.4902 9.22217V14.7778C21.4902 17.2386 20.9633 18.8849 19.9238 19.9243C18.8844 20.9638 17.2381 21.4907 14.7773 21.4907H9.22168C6.76133 21.4907 5.11564 20.9635 4.07617 19.9243C3.03671 18.8849 2.50879 17.2386 2.50879 14.7778V9.22217C2.50881 6.7615 3.03673 5.1161 4.07617 4.07666C5.11561 3.03722 6.76102 2.5093 9.22168 2.50928ZM9.22168 2.97217C7.05483 2.97218 5.44817 3.3531 4.40039 4.40088C3.35261 5.44866 2.9717 7.05532 2.97168 9.22217V14.7778C2.97168 16.9447 3.35266 18.5513 4.40039 19.5991C5.44817 20.6469 7.05483 21.0278 9.22168 21.0278H14.7773C16.9443 21.0278 18.5508 20.6469 19.5986 19.5991C20.6464 18.5513 21.0273 16.9448 21.0273 14.7778V9.22217C21.0273 7.05532 20.6464 5.44866 19.5986 4.40088C18.5508 3.35315 16.9442 2.97217 14.7773 2.97217H9.22168Z" fill="#041117" stroke="#041117" stroke-width="0.925926"/>
<path d="M15.2402 5.75C16.3918 5.75 17.324 6.68147 17.3242 7.83301V16.167C17.3241 17.3186 16.3919 18.25 15.2402 18.25C14.0888 18.2498 13.1574 17.3185 13.1572 16.167V7.83301C13.1574 6.6816 14.0888 5.75021 15.2402 5.75ZM15.2402 6.21289C14.346 6.21311 13.6203 6.93875 13.6201 7.83301V16.167C13.6203 17.0613 14.3459 17.7869 15.2402 17.7871C16.1347 17.7871 16.8612 17.0615 16.8613 16.167V7.83301C16.8611 6.93861 16.1347 6.21289 15.2402 6.21289Z" fill="#041117" stroke="#041117" stroke-width="0.925926"/>
<path d="M8.75879 10.8425C9.91038 10.8425 10.8426 11.774 10.8428 12.9255V16.1667C10.8427 17.3184 9.91049 18.2498 8.75879 18.2498C7.60728 18.2495 6.67582 17.3183 6.67578 16.1667V12.9255C6.676 11.7741 7.60739 10.8427 8.75879 10.8425ZM8.75879 11.3054C7.86453 11.3056 7.13889 12.0313 7.13867 12.9255V16.1667C7.13871 17.0612 7.86442 17.7867 8.75879 17.7869C9.65334 17.7869 10.3798 17.0613 10.3799 16.1667V12.9255C10.3797 12.0311 9.65323 11.3054 8.75879 11.3054Z" fill="#041117" stroke="#041117" stroke-width="0.925926"/>
</svg>
