<svg width="24" height="25" viewBox="0 0 24 25" fill="none" xmlns="http://www.w3.org/2000/svg">
<g clip-path="url(#clip0_8865_8353)">
<path d="M11.1199 12.7725L12.1999 11.9525L13.2699 12.7625C13.6599 13.0525 14.1899 12.6825 14.0499 12.2125L13.6299 10.8525L14.8299 9.90246C15.1999 9.62246 14.9899 9.02246 14.5099 9.02246H13.1099L12.6799 7.68246C12.5299 7.22246 11.8799 7.22246 11.7299 7.68246L11.2899 9.02246H9.87994C9.40994 9.02246 9.19994 9.62246 9.56994 9.91246L10.7599 10.8625L10.3399 12.2225C10.1999 12.6925 10.7299 13.0625 11.1199 12.7725ZM6.19994 21.6325C6.19994 22.3125 6.86994 22.7925 7.51994 22.5825L12.1999 21.0225L16.8799 22.5825C17.5299 22.8025 18.1999 22.3225 18.1999 21.6325V15.3025C19.4399 13.8925 20.1999 12.0525 20.1999 10.0225C20.1999 5.60246 16.6199 2.02246 12.1999 2.02246C7.77994 2.02246 4.19994 5.60246 4.19994 10.0225C4.19994 12.0525 4.95994 13.8925 6.19994 15.3025V21.6325ZM12.1999 4.02246C15.5099 4.02246 18.1999 6.71246 18.1999 10.0225C18.1999 13.3325 15.5099 16.0225 12.1999 16.0225C8.88994 16.0225 6.19994 13.3325 6.19994 10.0225C6.19994 6.71246 8.88994 4.02246 12.1999 4.02246Z" fill="#111215"/>
</g>
<defs>
<clipPath id="clip0_8865_8353">
<rect width="24" height="24" fill="white" transform="translate(0 0.222656)"/>
</clipPath>
</defs>
</svg>
