<svg width="24" height="25" viewBox="0 0 24 25" fill="none" xmlns="http://www.w3.org/2000/svg">
<g opacity="0.98">
<path d="M21.4691 12.4584C21.4691 6.60171 16.9246 2.62256 11.868 2.62256C6.86469 2.62256 2.26679 6.51637 2.26679 12.5224C1.62672 12.8851 1.2 13.5679 1.2 14.3573V16.4909C1.2 17.6644 2.16011 18.6245 3.33359 18.6245C3.92033 18.6245 4.40039 18.1445 4.40039 17.5577V12.4264C4.40039 8.34059 7.54744 4.76682 11.6333 4.64947C15.8578 4.52146 19.3355 7.91387 19.3355 12.1171V19.6913H11.868C11.2812 19.6913 10.8012 20.1714 10.8012 20.7581C10.8012 21.3448 11.2812 21.8249 11.868 21.8249H19.3355C20.509 21.8249 21.4691 20.8648 21.4691 19.6913V18.3898C22.0985 18.0591 22.5359 17.4084 22.5359 16.6403V14.1866C22.5359 13.4399 22.0985 12.7891 21.4691 12.4584Z" fill="#111215"/>
<path d="M8.66757 14.3573C9.25675 14.3573 9.73437 13.8797 9.73437 13.2905C9.73437 12.7014 9.25675 12.2237 8.66757 12.2237C8.0784 12.2237 7.60078 12.7014 7.60078 13.2905C7.60078 13.8797 8.0784 14.3573 8.66757 14.3573Z" fill="#111215"/>
<path d="M15.0684 14.3573C15.6575 14.3573 16.1352 13.8797 16.1352 13.2905C16.1352 12.7014 15.6575 12.2237 15.0684 12.2237C14.4792 12.2237 14.0016 12.7014 14.0016 13.2905C14.0016 13.8797 14.4792 14.3573 15.0684 14.3573Z" fill="#111215"/>
<path d="M18.2687 11.1889C17.7567 8.14857 15.111 5.82295 11.9213 5.82295C8.68891 5.82295 5.21115 8.50061 5.48852 12.7038C8.12351 11.6263 10.1077 9.27937 10.6732 6.42036C12.0707 9.22603 14.9403 11.1569 18.2687 11.1889Z" fill="#111215"/>
</g>
</svg>
