<svg width="12" height="12" viewBox="0 0 12 12" fill="none" xmlns="http://www.w3.org/2000/svg">
<path d="M9.38041 6.79673H0.770467C0.552169 6.79673 0.369312 6.72076 0.221897 6.56881C0.074481 6.41687 0.0005163 6.22905 2.65677e-06 6.00536C-0.000510986 5.78166 0.0734537 5.59384 0.221897 5.4419C0.370339 5.28996 0.553196 5.21398 0.770467 5.21398H9.38041L5.60513 1.33626C5.45104 1.17799 5.37707 0.993334 5.38324 0.782301C5.3894 0.571269 5.46979 0.386615 5.62439 0.228341C5.77849 0.0832559 5.95826 0.00728449 6.16372 0.000425931C6.36918 -0.00643263 6.54895 0.0695388 6.70304 0.228341L11.7881 5.4514C11.8652 5.53053 11.9199 5.61627 11.9522 5.70859C11.9846 5.80092 12.0005 5.89984 12 6.00536C11.9995 6.11087 11.9836 6.20979 11.9522 6.30212C11.9209 6.39445 11.8662 6.48018 11.7881 6.55932L6.70304 11.7824C6.56179 11.9275 6.38536 12 6.17373 12C5.96211 12 5.779 11.9275 5.62439 11.7824C5.4703 11.6241 5.39325 11.4363 5.39325 11.2189C5.39325 11.0016 5.4703 10.8135 5.62439 10.6547L9.38041 6.79673Z" fill="white"/>
</svg>
