<svg width="12" height="13" viewBox="0 0 12 13" fill="none" xmlns="http://www.w3.org/2000/svg">
<path d="M9.38041 7.38792H0.770467C0.552169 7.38792 0.369312 7.31194 0.221897 7.16C0.074481 7.00806 0.0005163 6.82024 2.65677e-06 6.59654C-0.000510986 6.37285 0.0734537 6.18503 0.221897 6.03309C0.370339 5.88114 0.553196 5.80517 0.770467 5.80517H9.38041L5.60513 1.92745C5.45104 1.76917 5.37707 1.58452 5.38324 1.37349C5.3894 1.16246 5.46979 0.977802 5.62439 0.819527C5.77849 0.674442 5.95826 0.598471 6.16372 0.591612C6.36918 0.584754 6.54895 0.660725 6.70304 0.819527L11.7881 6.04258C11.8652 6.12172 11.9199 6.20745 11.9522 6.29978C11.9846 6.39211 12.0005 6.49103 12 6.59654C11.9995 6.70206 11.9836 6.80098 11.9522 6.89331C11.9209 6.98563 11.8662 7.07137 11.7881 7.1505L6.70304 12.3736C6.56179 12.5186 6.38536 12.5912 6.17373 12.5912C5.96211 12.5912 5.779 12.5186 5.62439 12.3736C5.4703 12.2153 5.39325 12.0275 5.39325 11.8101C5.39325 11.5927 5.4703 11.4047 5.62439 11.2459L9.38041 7.38792Z" fill="white"/>
</svg>
