<svg width="24" height="24" viewBox="0 0 24 24" fill="none" xmlns="http://www.w3.org/2000/svg">
<path d="M9.55018 15.1501L18.0252 6.67512C18.2252 6.47512 18.4585 6.37512 18.7252 6.37512C18.9918 6.37512 19.2252 6.47512 19.4252 6.67512C19.6252 6.87512 19.7252 7.11279 19.7252 7.38812C19.7252 7.66346 19.6252 7.90079 19.4252 8.10012L10.2502 17.3001C10.0502 17.5001 9.81685 17.6001 9.55018 17.6001C9.28351 17.6001 9.05018 17.5001 8.85018 17.3001L4.55018 13.0001C4.35018 12.8001 4.25418 12.5628 4.26218 12.2881C4.27018 12.0135 4.37451 11.7758 4.57518 11.5751C4.77585 11.3745 5.01351 11.2745 5.28818 11.2751C5.56285 11.2758 5.80018 11.3758 6.00018 11.5751L9.55018 15.1501Z" fill="white"/>
</svg>
