<svg width="23" height="24" viewBox="0 0 23 24" fill="none" xmlns="http://www.w3.org/2000/svg">
<path d="M11.333 2.57422C11.5194 2.57426 11.8032 2.61447 12.1172 2.80469C12.4304 2.99441 12.8031 3.35106 13.1406 4.03027V4.03125L14.7734 7.29688C14.8835 7.50902 15.0768 7.69612 15.2568 7.8291C15.4137 7.94493 15.6155 8.05947 15.8242 8.11328L15.9141 8.13281L18.8682 8.62402V8.62305C19.5952 8.74504 20.0362 8.99301 20.3057 9.2334C20.5764 9.47493 20.6975 9.73131 20.751 9.90527C20.8066 10.0862 20.8548 10.3684 20.7754 10.7227C20.6963 11.0754 20.4837 11.5323 19.9678 12.0527L17.6709 14.3584C17.484 14.5456 17.3651 14.8086 17.2988 15.041C17.2322 15.2748 17.1966 15.5577 17.25 15.8096L17.252 15.8174L17.9092 18.6602C18.1069 19.5203 18.0437 20.0931 17.9141 20.4658C17.7851 20.8365 17.5772 21.0441 17.4268 21.1553C17.2561 21.277 16.9801 21.417 16.5732 21.417C16.1841 21.4169 15.6346 21.2922 14.9004 20.8604L12.1338 19.2227L12.1299 19.2207L12.0371 19.1719C11.8156 19.0695 11.5573 19.0322 11.334 19.0322C11.1115 19.0322 10.852 19.0697 10.6309 19.1748L10.542 19.2217L7.76367 20.8604L7.7627 20.8613C7.0012 21.313 6.43648 21.4259 6.04297 21.4141C5.65446 21.4023 5.39342 21.2683 5.23633 21.1553H5.2373C5.08552 21.043 4.87762 20.8345 4.74805 20.4648C4.61779 20.0931 4.55397 19.5214 4.75586 18.6621V18.6602L5.41309 15.8174L5.41211 15.8164C5.47378 15.5599 5.43655 15.2728 5.37012 15.043C5.3024 14.8088 5.17959 14.5449 4.99316 14.3584L2.69727 12.0615C2.17615 11.5404 1.96168 11.084 1.88281 10.7324C1.80364 10.3793 1.85417 10.0991 1.91211 9.92188C1.97066 9.74284 2.09489 9.48428 2.36621 9.24219C2.63629 9.00121 3.0759 8.75365 3.79785 8.63184L6.75098 8.14258V8.1416C6.99128 8.10155 7.22988 7.97035 7.40918 7.83691C7.58604 7.70527 7.7782 7.51692 7.88477 7.2998L7.88574 7.30078L9.52441 4.03223L9.52539 4.03027C9.86276 3.35136 10.2348 2.99444 10.5479 2.80469C10.862 2.61437 11.1466 2.57422 11.333 2.57422ZM11.333 3.04688C11.0036 3.04688 10.7208 3.22159 10.5078 3.42578C10.2899 3.63481 10.097 3.91828 9.9375 4.24609L8.29883 7.50488L8.29785 7.50586C8.17502 7.75153 7.95412 8.00415 7.67578 8.20996C7.39766 8.41558 7.09152 8.55282 6.82129 8.59863L3.87695 9.08984C3.52409 9.14713 3.20436 9.24956 2.94629 9.39746C2.69338 9.54243 2.45654 9.75733 2.35645 10.0576C2.2532 10.3675 2.32688 10.6873 2.4502 10.9502C2.57652 11.2194 2.78068 11.4864 3.0332 11.7344V11.7354L5.3291 14.0312C5.54074 14.2429 5.71721 14.5581 5.81934 14.9141C5.92129 15.2695 5.93904 15.6305 5.87207 15.9238L5.21484 18.7656C5.09986 19.2606 5.0745 19.6698 5.11914 19.9941C5.16144 20.3013 5.27904 20.6074 5.52637 20.7842C5.77008 20.9583 6.09323 20.9751 6.39746 20.9219C6.71793 20.8658 7.09874 20.7199 7.53711 20.4658L7.54102 20.4639L10.3096 18.8242L10.3135 18.8223C10.5807 18.6606 10.9483 18.5654 11.333 18.5654C11.7164 18.5655 12.0865 18.6602 12.3662 18.8252V18.8242L15.1318 20.4619V20.4629C15.5685 20.7239 15.9522 20.8708 16.2764 20.9258C16.5845 20.978 16.9074 20.9563 17.1484 20.7842C17.4 20.6043 17.5117 20.2905 17.5518 19.9883C17.5945 19.6653 17.5697 19.2586 17.46 18.7695V18.7666L16.8027 15.9238C16.6633 15.3133 16.8997 14.4849 17.3447 14.0303L17.3457 14.0312L19.6416 11.7354C19.8944 11.4826 20.0955 11.2145 20.2207 10.9463C20.3431 10.6837 20.414 10.3722 20.3223 10.0693L20.3184 10.0576L20.2744 9.94922C20.1586 9.70481 19.9499 9.52435 19.7285 9.39746C19.4702 9.24944 19.1501 9.14711 18.7969 9.08984H18.7979L15.8438 8.59863H15.8428C15.5729 8.5526 15.2679 8.41517 14.9902 8.20996C14.7118 8.00412 14.4901 7.75159 14.3672 7.50586L12.7373 4.24707C12.573 3.91843 12.378 3.63313 12.1582 3.42383C11.945 3.22077 11.6622 3.04698 11.333 3.04688Z" fill="#292D32" stroke="#041117" stroke-width="0.925926"/>
</svg>
