<svg width="33" height="32" viewBox="0 0 33 32" fill="none" xmlns="http://www.w3.org/2000/svg">
<path d="M16.7501 17.8673L10.2167 24.4007C9.97229 24.6451 9.66118 24.7673 9.2834 24.7673C8.90562 24.7673 8.59451 24.6451 8.35006 24.4007C8.10562 24.1562 7.9834 23.8451 7.9834 23.4673C7.9834 23.0896 8.10562 22.7785 8.35006 22.534L14.8834 16.0007L8.35006 9.46734C8.10562 9.2229 7.9834 8.91179 7.9834 8.53401C7.9834 8.15623 8.10562 7.84512 8.35006 7.60067C8.59451 7.35623 8.90562 7.23401 9.2834 7.23401C9.66118 7.23401 9.97229 7.35623 10.2167 7.60067L16.7501 14.134L23.2834 7.60067C23.5278 7.35623 23.839 7.23401 24.2167 7.23401C24.5945 7.23401 24.9056 7.35623 25.1501 7.60067C25.3945 7.84512 25.5167 8.15623 25.5167 8.53401C25.5167 8.91179 25.3945 9.2229 25.1501 9.46734L18.6167 16.0007L25.1501 22.534C25.3945 22.7785 25.5167 23.0896 25.5167 23.4673C25.5167 23.8451 25.3945 24.1562 25.1501 24.4007C24.9056 24.6451 24.5945 24.7673 24.2167 24.7673C23.839 24.7673 23.5278 24.6451 23.2834 24.4007L16.7501 17.8673Z" fill="#FF6632"/>
</svg>
